# xmcd
#
# Track frame offsets:
# 150
# 19514
# 38336
# 57789
# 74946
# 96229
# 112653
# 126782
# 138657
# 159652
# 172633
# 191871
# 204059
# 222008
# 242171
# 260246
# 275765
# 298871
#
# Disc length: 4246 seconds
#
#
# Revision: 0
# Processed by: cddbd v1.5.1PL2 Copyright (c) Steve Scherf et al.
# Submitted via: FreeRIP 2.942 
#
DISCID=0c109412
DTITLE=Elkie Brooks - No More The Fool The Collection Disc Three
DYEAR=2005
DGENRE=Pop
TTITLE0=We've Got Tonight
TTITLE1=Foolish Games
TTITLE2=Blue Jay
TTITLE3=Hold The Dream
TTITLE4=Break The Chain
TTITLE5=I Ain't Got Nothing But The Blues
TTITLE6=Just For A Thirll
TTITLE7=Trouble In Mind
TTITLE8=Please Send Me Someone To Love
TTITLE9=Crazy He Calls Me
TTITLE10=Baby What You Want Me To Do
TTITLE11=I Love Your Lovin' Ways
TTITLE12=Hiding Inside Yourself
TTITLE13=No Secrets (Call Of The Wild)
TTITLE14=What's The Matter Baby
TTITLE15=You Ain't Leavin'
TTITLE16=Don't Want To Cry No More
TTITLE17=Stairway To Heaven
EXTD=2005
EXTT0=
EXTT1=
EXTT2=
EXTT3=
EXTT4=
EXTT5=
EXTT6=
EXTT7=
EXTT8=
EXTT9=
EXTT10=
EXTT11=
EXTT12=
EXTT13=
EXTT14=
EXTT15=
EXTT16=
EXTT17=
PLAYORDER=
